# xmcd
#
# Track frame offsets:
#	150
#	14820
#	27795
#	43343
#	55170
#	65818
#	91790
#	106790
#	121820
#	134033
#	146083
#	161820
#	180143
#	192878
#	208708
#	220283
#	230783
#	238618
#	251308
#	266740
#	274983
#	287530
#	298425
#
# Disc length: 4173 seconds
#
# Revision: 0
# Processed by: cddbd v1.4PL0 Copyright (c) Steve Scherf et al.
# Submitted via: EasyCDDAExtractor 4.6.9.1
#
DISCID=6c104b17
DTITLE=Boxcar Willie - Country Greats
DYEAR=1900
DGENRE=country
TTITLE0=Freightline Fever
TTITLE1=Truck Driving Man
TTITLE2=Phantom 309
TTITLE3=Truck Drivin' Son-of-a-Gun
TTITLE4=Six Days On The Road
TTITLE5=Teddy Bear
TTITLE6=White Line Fever
TTITLE7=Girl On The Billboard
TTITLE8=How Fast Them Truck Will Go
TTITLE9=Trucker's Prayer
TTITLE10=Give Me 40 Acres
TTITLE11=Convoy
TTITLE12=Spirit of America
TTITLE13=Old Kentucky Home
TTITLE14=Dixie
TTITLE15=Thank You Old Flag of Mine
TTITLE16=America
TTITLE17=North To Alaska
TTITLE18=Play The Star Spangled Banner Over Me
TTITLE19=Battle Hymn of The Republic
TTITLE20=There's A Star Spangled Banner Waving Somewhere
TTITLE21=Yankee Doodle
TTITLE22=Battle of New Orleans
EXTD=
EXTT0=
EXTT1=
EXTT2=
EXTT3=
EXTT4=
EXTT5=
EXTT6=
EXTT7=
EXTT8=
EXTT9=
EXTT10=
EXTT11=
EXTT12=
EXTT13=
EXTT14=
EXTT15=
EXTT16=
EXTT17=
EXTT18=
EXTT19=
EXTT20=
EXTT21=
EXTT22=
PLAYORDER=
